<svg width="30" height="30" viewBox="0 0 50 50" fill="none" xmlns="http://www.w3.org/2000/svg">
<path d="M27.9862 1.99875V6.87L29.4862 7.25813C31.1831 7.69688 32.8012 8.3775 34.2975 9.285L35.6381 10.0988L39.1256 6.61125L43.3669 10.8525L39.8269 14.3925L40.59 15.72C41.4356 17.1919 42.0675 18.7856 42.4687 20.4581L42.8362 21.99H47.9812V27.9881H42.72L42.315 29.4544C41.8781 31.0369 41.2219 32.5556 40.365 33.9656L39.5512 35.3081L43.3687 39.1238L39.1275 43.365L35.2575 39.495L33.9319 40.2581C32.5556 41.0494 31.0612 41.655 29.4919 42.06L27.9919 42.4463V47.9794H21.9937V42.4463L20.4937 42.06C18.9244 41.655 17.43 41.0494 16.0537 40.2581L14.7262 39.495L10.8562 43.365L6.615 39.1238L10.4325 35.3081L9.61875 33.9656C8.76188 32.5538 8.10563 31.0369 7.66875 29.4544L7.26375 27.9881H2.0025V21.99H7.1475L7.515 20.4581C7.91438 18.7875 8.54813 17.1919 9.39375 15.72L10.1569 14.3925L6.61687 10.8525L10.8581 6.61125L14.3456 10.0988L15.6862 9.285C17.1825 8.3775 18.8006 7.695 20.4975 7.25813L21.9975 6.87V1.99875H27.9956H27.9862ZM24.9881 33.9881C29.9494 33.9881 33.9844 29.9513 33.9844 24.99C33.9844 20.0288 29.9494 15.9919 24.9881 15.9919C20.0269 15.9919 15.9919 20.0288 15.9919 24.99C15.9919 29.9513 20.0269 33.9881 24.9881 33.9881ZM29.9869 0H19.9912V5.32313C18.0825 5.81625 16.2881 6.57938 14.6437 7.57688L10.8525 3.78563L3.78562 10.8544L7.6575 14.7263C6.72375 16.3519 6.01687 18.12 5.56875 19.9931H0V29.9888H5.7375C6.23062 31.7756 6.96562 33.4575 7.905 35.0063L3.78375 39.1275L10.8506 46.1963L15.0525 41.9944C16.5825 42.8738 18.24 43.5469 19.9894 43.9988V49.9819H29.985V43.9988C31.7344 43.5469 33.3919 42.8738 34.9219 41.9944L39.1237 46.1963L46.1906 39.1275L42.0694 35.0063C43.0088 33.4575 43.7437 31.7756 44.2369 29.9888H49.9744V19.9931H44.4056C43.9575 18.12 43.2506 16.3538 42.3169 14.7263L46.1887 10.8544L39.1219 3.78563L35.3306 7.57688C33.6862 6.57938 31.8919 5.81625 29.9831 5.32313V0H29.9869ZM24.9881 31.9894C21.1219 31.9894 17.9906 28.8563 17.9906 24.99C17.9906 21.1238 21.1219 17.9925 24.9881 17.9925C28.8544 17.9925 31.9856 21.1256 31.9856 24.99C31.9856 28.8563 28.8544 31.9894 24.9881 31.9894Z" fill="white"/>
</svg>
