<svg width="44" height="44" viewBox="0 0 44 44" fill="none" xmlns="http://www.w3.org/2000/svg">
<path d="M21.8465 0C9.78724 0 0 9.8406 0 21.9656C0 34.0906 9.78724 43.9313 21.8465 43.9313C33.9058 43.9313 43.693 34.0906 43.693 21.9656C43.693 9.8406 33.9058 0 21.8465 0ZM21.8465 6.58969C25.473 6.58969 28.4005 9.53308 28.4005 13.1794C28.4005 16.8257 25.473 19.7691 21.8465 19.7691C18.22 19.7691 15.2926 16.8257 15.2926 13.1794C15.2926 9.53308 18.22 6.58969 21.8465 6.58969ZM21.8465 37.7809C16.3849 37.7809 11.5568 34.9693 8.73861 30.7079C8.80415 26.3368 17.4772 23.9425 21.8465 23.9425C26.194 23.9425 34.8889 26.3368 34.9544 30.7079C32.1362 34.9693 27.3081 37.7809 21.8465 37.7809Z" fill="black"/>
</svg>
